<?xml version="1.0" encoding="utf-8"?>
<!-- Generator: Adobe Illustrator 19.2.1, SVG Export Plug-In . SVG Version: 6.00 Build 0)  -->
<svg version="1.1" id="Layer_1" xmlns="http://www.w3.org/2000/svg" xmlns:xlink="http://www.w3.org/1999/xlink" x="0px" y="0px"
	 width="18px" height="18px" viewBox="0 0 18 18" enable-background="new 0 0 18 18" xml:space="preserve">
<path fill="#7C7C7C" d="M14.082,4.213c0,0.368-0.298,0.666-0.666,0.666l0,0c-0.368,0-0.666-0.298-0.666-0.666V2.749
	c0-0.368,0.298-0.666,0.666-0.666l0,0c0.368,0,0.666,0.298,0.666,0.666V4.213z"/>
<path fill="#7C7C7C" d="M5.67,4.213c0,0.368-0.298,0.666-0.666,0.666l0,0c-0.368,0-0.666-0.298-0.666-0.666V2.749
	c0-0.368,0.298-0.666,0.666-0.666l0,0c0.368,0,0.666,0.298,0.666,0.666V4.213z"/>
<path fill="#7C7C7C" d="M15.384,3.082h-0.85v1.19c0,0.626-0.507,1.133-1.133,1.133c-0.626,0-1.133-0.507-1.133-1.133v-1.19H6.151
	v1.19c0,0.626-0.507,1.133-1.133,1.133c-0.626,0-1.133-0.507-1.133-1.133v-1.19H2.923c-0.939,0-1.699,0.761-1.699,1.699v9.8
	c0,0.939,0.761,1.699,1.699,1.699h12.462c0.939,0,1.699-0.761,1.699-1.699v-9.8C17.084,3.843,16.323,3.082,15.384,3.082z
	 M15.498,14.524H2.809V7.387h12.688V14.524z"/>
</svg>
