<?xml version="1.0" encoding="utf-8"?>
<!-- Generator: Adobe Illustrator 19.2.1, SVG Export Plug-In . SVG Version: 6.00 Build 0)  -->
<svg version="1.1" id="Layer_1" xmlns="http://www.w3.org/2000/svg" xmlns:xlink="http://www.w3.org/1999/xlink" x="0px" y="0px"
	 width="18px" height="18px" viewBox="0 0 18 18" enable-background="new 0 0 18 18" xml:space="preserve">
<path fill="#7C7C7C" d="M15.009,7.133L14.434,4.57c-0.042-0.792-0.889-1.404-1.961-1.404H5.527c-1.072,0-1.918,0.612-1.961,1.404
	L2.992,7.132c-0.908,0.274-1.576,1.123-1.576,2.14v1.237c0,0.88,0.501,1.634,1.223,2c-0.008,0.051-0.03,0.097-0.03,0.15v0.182
	c0,0.552,0.448,1,1,1s1-0.448,1-1V12.75h9.057v0.091c0,0.552,0.448,1,1,1c0.552,0,1-0.448,1-1v-0.182
	c0-0.102-0.03-0.195-0.058-0.287c0.587-0.402,0.975-1.086,0.975-1.863V9.272C16.583,8.255,15.917,7.407,15.009,7.133z M4.552,4.743
	l0.012-0.109c0-0.186,0.384-0.467,0.962-0.467h6.946c0.579,0,0.963,0.281,0.963,0.467l0.529,2.398H4.04L4.552,4.743z M4.917,10.792
	c-0.667,0-1.208-0.541-1.208-1.208s0.541-1.208,1.208-1.208c0.667,0,1.208,0.541,1.208,1.208S5.584,10.792,4.917,10.792z M13,10.792
	c-0.667,0-1.208-0.541-1.208-1.208S12.333,8.375,13,8.375s1.208,0.541,1.208,1.208S13.667,10.792,13,10.792z"/>
</svg>
