<?xml version="1.0" encoding="utf-8"?>
<!-- Generator: Adobe Illustrator 19.2.1, SVG Export Plug-In . SVG Version: 6.00 Build 0)  -->
<svg version="1.1" id="Layer_1" xmlns="http://www.w3.org/2000/svg" xmlns:xlink="http://www.w3.org/1999/xlink" x="0px" y="0px"
	 width="18px" height="18px" viewBox="0 0 18 18" enable-background="new 0 0 18 18" xml:space="preserve">
<path fill="#7C7C7C" d="M9.6,4.833L8.839,4.758C8.817,4.655,8.79,4.553,8.757,4.454L9.38,4.009c0.053-0.03,0.071-0.098,0.04-0.15
	L8.965,3.07C8.935,3.018,8.867,3,8.815,3.03L8.117,3.347c-0.07-0.078-0.145-0.152-0.222-0.222l0.316-0.697
	c0.03-0.053,0.012-0.12-0.04-0.15L7.383,1.821c-0.053-0.03-0.12-0.012-0.15,0.04L6.787,2.484C6.688,2.452,6.586,2.424,6.482,2.402
	L6.408,1.641c0-0.061-0.049-0.11-0.11-0.11h-0.91c-0.061,0-0.11,0.049-0.11,0.11L5.204,2.402C5.1,2.424,4.998,2.452,4.899,2.484
	L4.454,1.862c-0.03-0.053-0.098-0.071-0.15-0.04L3.515,2.276c-0.053,0.03-0.071,0.098-0.04,0.15l0.317,0.697
	C3.714,3.194,3.639,3.269,3.569,3.347L2.872,3.03C2.819,3,2.752,3.018,2.721,3.07L2.266,3.858c-0.03,0.053-0.012,0.12,0.04,0.15
	l0.622,0.445c-0.032,0.1-0.06,0.201-0.082,0.305L2.086,4.833c-0.061,0-0.11,0.049-0.11,0.11v0.91c0,0.061,0.049,0.11,0.11,0.11
	l0.762,0.074c0.022,0.104,0.049,0.206,0.082,0.305L2.307,6.787c-0.053,0.03-0.071,0.098-0.04,0.15l0.455,0.788
	c0.03,0.053,0.098,0.071,0.15,0.04l0.697-0.317c0.071,0.078,0.145,0.153,0.223,0.223L3.475,8.37c-0.03,0.053-0.012,0.12,0.04,0.15
	l0.788,0.455c0.053,0.03,0.12,0.012,0.15-0.04l0.445-0.622C4.998,8.344,5.1,8.372,5.203,8.394l0.075,0.762
	c0,0.061,0.049,0.11,0.11,0.11h0.91c0.061,0,0.11-0.049,0.11-0.11l0.075-0.762c0.103-0.022,0.205-0.049,0.304-0.081l0.445,0.622
	c0.03,0.053,0.098,0.071,0.15,0.04L8.171,8.52c0.053-0.03,0.071-0.098,0.04-0.15L7.895,7.672c0.078-0.07,0.152-0.145,0.222-0.222
	l0.697,0.316c0.053,0.03,0.12,0.012,0.15-0.04L9.42,6.938c0.03-0.053,0.012-0.12-0.04-0.15L8.757,6.342
	C8.79,6.243,8.817,6.141,8.839,6.038L9.6,5.963c0.061,0,0.11-0.049,0.11-0.11v-0.91C9.711,4.882,9.661,4.833,9.6,4.833z
	 M5.843,6.714c-0.727,0-1.316-0.589-1.316-1.316s0.589-1.316,1.316-1.316S7.16,4.671,7.16,5.398S6.57,6.714,5.843,6.714z"/>
<path fill="#7C7C7C" d="M15.894,11.24l-0.899-0.088c-0.026-0.122-0.058-0.242-0.096-0.359l0.734-0.525
	c0.062-0.036,0.083-0.115,0.047-0.177l-0.537-0.93c-0.036-0.062-0.115-0.083-0.177-0.048l-0.823,0.373
	c-0.083-0.092-0.171-0.179-0.262-0.262l0.373-0.823c0.036-0.062,0.015-0.141-0.048-0.177l-0.93-0.537
	c-0.062-0.036-0.142-0.015-0.177,0.047l-0.525,0.734c-0.117-0.038-0.237-0.07-0.36-0.096l-0.087-0.899c0-0.072-0.058-0.13-0.13-0.13
	h-1.073c-0.072,0-0.13,0.058-0.13,0.13l-0.087,0.899c-0.122,0.026-0.243,0.058-0.36,0.096L9.822,7.734
	C9.787,7.672,9.707,7.651,9.645,7.687l-0.93,0.537C8.653,8.259,8.632,8.339,8.668,8.401l0.374,0.822
	c-0.092,0.083-0.18,0.171-0.263,0.263L7.956,9.113C7.894,9.077,7.814,9.098,7.778,9.16l-0.537,0.93
	c-0.036,0.062-0.015,0.142,0.047,0.177l0.734,0.525c-0.038,0.118-0.07,0.238-0.096,0.36L7.029,11.24c-0.072,0-0.13,0.058-0.13,0.13
	v1.073c0,0.072,0.058,0.13,0.13,0.13l0.899,0.087c0.026,0.122,0.058,0.243,0.096,0.36l-0.734,0.525
	c-0.062,0.036-0.083,0.115-0.047,0.177l0.537,0.93c0.036,0.062,0.115,0.083,0.177,0.048l0.822-0.374
	c0.083,0.092,0.171,0.18,0.263,0.263l-0.374,0.822c-0.036,0.062-0.015,0.141,0.048,0.177l0.93,0.537
	c0.062,0.036,0.142,0.015,0.177-0.047l0.525-0.734c0.117,0.038,0.237,0.07,0.36,0.096l0.088,0.899c0,0.072,0.058,0.13,0.13,0.13
	h1.073c0.072,0,0.13-0.058,0.13-0.13l0.088-0.899c0.122-0.026,0.242-0.058,0.359-0.096l0.525,0.734
	c0.036,0.062,0.115,0.083,0.177,0.047l0.93-0.537c0.062-0.036,0.083-0.115,0.048-0.177l-0.373-0.823
	c0.092-0.083,0.179-0.171,0.262-0.262l0.823,0.373c0.062,0.036,0.141,0.015,0.177-0.048l0.537-0.93
	c0.036-0.062,0.015-0.142-0.047-0.177L14.9,13.02c0.038-0.117,0.07-0.237,0.096-0.359l0.899-0.088c0.072,0,0.13-0.058,0.13-0.13
	V11.37C16.024,11.298,15.966,11.24,15.894,11.24z M11.462,13.46c-0.858,0-1.553-0.695-1.553-1.553s0.695-1.553,1.553-1.553
	c0.858,0,1.553,0.695,1.553,1.553S12.319,13.46,11.462,13.46z"/>
</svg>
