<?xml version="1.0" encoding="utf-8"?>
<!-- Generator: Adobe Illustrator 19.2.1, SVG Export Plug-In . SVG Version: 6.00 Build 0)  -->
<svg version="1.1" id="Layer_1" xmlns="http://www.w3.org/2000/svg" xmlns:xlink="http://www.w3.org/1999/xlink" x="0px" y="0px"
	 width="18px" height="18px" viewBox="0 0 18 18" enable-background="new 0 0 18 18" xml:space="preserve">
<g>
	<circle fill="#7C7C7C" cx="4.958" cy="6.625" r="0.958"/>
	<path fill="#7C7C7C" d="M14.333,3.069H3.667c-1.105,0-2,0.895-2,2v7.611c0,0.065,0.013,0.125,0.019,0.188
		c-0.012,0.029-0.019,0.048-0.019,0.048l0.028,0.043c0.137,0.971,0.963,1.721,1.972,1.721h10.667c1.105,0,2-0.895,2-2V5.069
		C16.333,3.965,15.438,3.069,14.333,3.069z M2.667,5.069c0-0.551,0.449-1,1-1h10.667c0.551,0,1,0.449,1,1v5.687l-1.667-4.423
		l-2.833,5.917L8.667,8.875L6,11c-1.531-0.851-2.626-0.333-3.333,0.378V5.069z"/>
</g>
</svg>
