<?xml version="1.0" encoding="utf-8"?>
<!-- Generator: Adobe Illustrator 19.2.1, SVG Export Plug-In . SVG Version: 6.00 Build 0)  -->
<svg version="1.1" id="Layer_1" xmlns="http://www.w3.org/2000/svg" xmlns:xlink="http://www.w3.org/1999/xlink" x="0px" y="0px"
	 width="40px" height="40px" viewBox="0 0 40 40" enable-background="new 0 0 40 40" xml:space="preserve">
<path fill="#353535" d="M37.03,17H23V2.97C23,1.33,21.67,0,20.03,0h-0.06C18.33,0,17,1.33,17,2.97V17H2.97C1.33,17,0,18.33,0,19.97
	v0.06C0,21.67,1.33,23,2.97,23H17v14.03c0,1.64,1.33,2.97,2.97,2.97h0.06c1.64,0,2.97-1.33,2.97-2.97V23h14.03
	c1.64,0,2.97-1.33,2.97-2.97v-0.06C40,18.33,38.67,17,37.03,17z"/>
</svg>
